<svg width="256" height="256" viewBox="0 0 256 256" fill="none" xmlns="http://www.w3.org/2000/svg">
<rect width="256" height="256" fill="#ED9126"/>
<path d="M66.9063 153.886C66.9063 136.754 71.1513 114.034 75.5925 100.557C81.7678 102.866 88.5238 103.829 94.8951 103.829C97.9866 103.829 100.105 103.633 100.105 103.633V103.25C75.977 100.362 61.5 87.4639 61.5 67.0604C61.5 62.2472 62.2691 56.6594 64.1994 50.5C82.3409 62.8188 108.596 67.8275 127.514 67.8275C131.374 67.8275 135.039 67.444 137.361 67.2484C130.801 80.5298 125.583 97.4738 122.115 114.997H122.499C134.85 86.6967 148.754 62.6308 169.407 62.6308C183.114 62.6308 191.801 73.6033 191.801 89.2011C191.801 97.6693 189.29 106.529 183.499 114.425C180.219 113.079 175.974 112.304 171.721 112.304C157.825 112.304 141.802 120.201 133.116 131.941L133.501 132.136C144.117 122.314 154.349 115.004 168.826 115.004C187.163 115.004 194.5 126.752 194.5 142.154C194.5 167.378 175.001 204.342 147.012 204.342C126.164 204.342 109.757 183.931 99.9169 164.49H99.3363C104.546 177.2 109.757 186.052 118.058 195.295C114.394 200.687 107.246 205.5 97.7905 205.5C82.5444 205.5 66.9063 192.798 66.9063 153.901V153.886ZM134.85 140.409H134.466C128.479 151.382 123.653 163.512 120.954 177.373C129.444 165.438 134.466 154.465 134.85 140.409ZM151.446 84.5759H151.061C146.236 94.0068 142.76 102.866 140.445 113.651C147.397 105.754 151.446 96.5187 151.446 84.5759Z" fill="white"/>
</svg>
